<svg width="1358" height="174" viewBox="0 0 1358 174" fill="none" xmlns="http://www.w3.org/2000/svg">
<g clip-path="url(#clip0_26_902)">
<path d="M1078.8 139.2V174H869.999L835.199 139.2V0H869.999V139.2H1078.8Z" fill="#0E0E0E"/>
<path d="M78.3 174H0V139.2H60.9L165.3 0H243.6V34.8H182.7L78.3 174Z" fill="#F01C00"/>
<path d="M313.2 34.8V139.2H522V174H313.2L278.4 139.2V34.8L313.2 0H522V34.8H313.2Z" fill="#0E0E0E"/>
<path d="M1148.4 104.4V139.2H1357.2V174H1148.4L1113.6 139.2V104.4L1148.4 69.6H1113.6V34.8L1148.4 0H1357.2V34.8H1148.4V69.6H1357.2V104.4H1148.4Z" fill="#0E0E0E"/>
<path d="M800.401 34.8V174H765.601V104.4H591.601L626.401 69.6H765.601V34.8H591.601V174H556.801V34.8L591.601 0H765.601L800.401 34.8Z" fill="#0E0E0E"/>
</g>
<defs>
<clipPath id="clip0_26_902">
<rect width="1357.2" height="174" fill="white"/>
</clipPath>
</defs>
</svg>
